<svg width="200" height="200" viewBox="0 0 200 200" fill="none" xmlns="http://www.w3.org/2000/svg">
<rect width="200" height="200" rx="20" fill="#F0F7FF"/>
<path d="M65.0668 133.333C63.1474 133.333 61.546 132.691 60.2627 131.408C58.9793 130.125 58.3363 128.522 58.3335 126.6V81.733C58.3335 79.8136 58.9766 78.2122 60.2627 76.9289C61.5488 75.6455 63.1502 75.0025 65.0668 74.9997H77.3877L83.0793 68.8122C83.6904 68.1511 84.4307 67.6289 85.3002 67.2455C86.1641 66.8594 87.071 66.6664 88.021 66.6664H104.646C105.238 66.6664 105.733 66.8664 106.133 67.2664C106.533 67.6664 106.733 68.1622 106.733 68.7539C106.733 69.3455 106.533 69.84 106.133 70.2372C105.733 70.6344 105.239 70.833 104.65 70.833H86.9002L79.2168 79.1664H65.0668C64.3168 79.1664 63.7016 79.4066 63.221 79.8872C62.7404 80.3678 62.5002 80.983 62.5002 81.733V126.604C62.5002 127.351 62.7404 127.965 63.221 128.446C63.7016 128.926 64.3168 129.166 65.0668 129.166H126.604C127.352 129.166 127.965 128.926 128.446 128.446C128.927 127.965 129.167 127.35 129.167 126.6V95.3497C129.167 94.7608 129.367 94.2664 129.767 93.8664C130.167 93.4664 130.663 93.2664 131.254 93.2664C131.846 93.2664 132.34 93.4664 132.738 93.8664C133.135 94.2664 133.333 94.7608 133.333 95.3497V126.6C133.333 128.519 132.69 130.121 131.404 131.404C130.118 132.687 128.518 133.33 126.604 133.333H65.0668ZM129.167 70.833H122.917C122.325 70.833 121.831 70.633 121.433 70.233C121.036 69.833 120.836 69.3372 120.833 68.7455C120.831 68.1539 121.031 67.6594 121.433 67.2622C121.836 66.865 122.331 66.6664 122.917 66.6664H129.167V60.4164C129.167 59.8247 129.367 59.3303 129.767 58.933C130.167 58.5358 130.663 58.3358 131.254 58.333C131.846 58.3303 132.34 58.5303 132.738 58.933C133.135 59.3358 133.333 59.8303 133.333 60.4164V66.6664H139.583C140.175 66.6664 140.67 66.8664 141.067 67.2664C141.464 67.6664 141.664 68.1622 141.667 68.7539C141.67 69.3455 141.47 69.84 141.067 70.2372C140.664 70.6344 140.17 70.833 139.583 70.833H133.333V77.083C133.333 77.6747 133.133 78.1691 132.733 78.5664C132.333 78.9636 131.838 79.1636 131.246 79.1664C130.654 79.1691 130.16 78.9691 129.763 78.5664C129.365 78.1636 129.167 77.6691 129.167 77.083V70.833ZM95.8335 119.708C100.186 119.708 103.865 118.207 106.871 115.204C109.877 112.201 111.379 108.522 111.379 104.166C111.379 99.8108 109.877 96.1316 106.871 93.1289C103.865 90.1261 100.186 88.6233 95.8335 88.6205C91.4807 88.6178 87.8015 90.1205 84.796 93.1289C81.7904 96.1372 80.2877 99.8164 80.2877 104.166C80.2877 108.516 81.7904 112.196 84.796 115.204C87.8015 118.212 91.4807 119.715 95.8335 119.712M95.8335 115.546C92.5974 115.546 89.8918 114.458 87.7168 112.283C85.5418 110.108 84.4543 107.402 84.4543 104.166C84.4543 100.93 85.5418 98.2247 87.7168 96.0497C89.8918 93.8747 92.5974 92.7872 95.8335 92.7872C99.0696 92.7872 101.775 93.8747 103.95 96.0497C106.125 98.2247 107.213 100.93 107.213 104.166C107.213 107.402 106.125 110.108 103.95 112.283C101.775 114.458 99.0696 115.546 95.8335 115.546Z" fill="#5899DD"/>
</svg>
