<svg width="220" height="220" viewBox="0 0 220 220" fill="none" xmlns="http://www.w3.org/2000/svg">
<rect width="220" height="220" rx="20" fill="#5899DD"/>
<path d="M110 108.75C123.807 108.75 135 97.5571 135 83.75C135 69.9429 123.807 58.75 110 58.75C96.1929 58.75 85 69.9429 85 83.75C85 97.5571 96.1929 108.75 110 108.75Z" stroke="white" stroke-width="5" stroke-linecap="round"/>
<path d="M68.3627 154.5C72.4939 137.05 89.8252 127.5 107.769 127.5H112.231C130.175 127.5 147.506 137.044 151.638 154.5C152.438 157.881 153.075 161.419 153.431 165.013C153.775 168.45 150.95 171.25 147.5 171.25H72.5002C69.0502 171.25 66.2252 168.444 66.5689 165.013C66.9252 161.419 67.5627 157.881 68.3627 154.5Z" stroke="white" stroke-width="5" stroke-linecap="round"/>
</svg>
