<svg width="30" height="30" viewBox="0 0 30 30" fill="none" xmlns="http://www.w3.org/2000/svg">
<path d="M30 5.625V24.375H1.875V20.625H0V3.75H26.25V5.625H30ZM22.5 5.625C22.5 5.88867 22.5488 6.13281 22.6465 6.35742C22.7441 6.58203 22.876 6.77734 23.042 6.94336C23.208 7.10938 23.4082 7.24609 23.6426 7.35352C23.877 7.46094 24.1211 7.50977 24.375 7.5V5.625H22.5ZM1.875 7.5C2.13867 7.5 2.38281 7.45117 2.60742 7.35352C2.83203 7.25586 3.02734 7.12402 3.19336 6.95801C3.35938 6.79199 3.49609 6.5918 3.60352 6.35742C3.71094 6.12305 3.75977 5.87891 3.75 5.625H1.875V7.5ZM1.875 15C2.39258 15 2.87598 15.0977 3.3252 15.293C3.77441 15.4883 4.1748 15.7568 4.52637 16.0986C4.87793 16.4404 5.14648 16.8359 5.33203 17.2852C5.51758 17.7344 5.61523 18.2227 5.625 18.75H20.625C20.625 18.2324 20.7227 17.749 20.918 17.2998C21.1133 16.8506 21.3818 16.4502 21.7236 16.0986C22.0654 15.7471 22.4609 15.4785 22.9102 15.293C23.3594 15.1074 23.8477 15.0098 24.375 15V9.375C23.8574 9.375 23.374 9.27734 22.9248 9.08203C22.4756 8.88672 22.0752 8.61816 21.7236 8.27637C21.3721 7.93457 21.1035 7.53906 20.918 7.08984C20.7324 6.64062 20.6348 6.15234 20.625 5.625H5.625C5.625 6.14258 5.52734 6.62598 5.33203 7.0752C5.13672 7.52441 4.86816 7.9248 4.52637 8.27637C4.18457 8.62793 3.78906 8.89648 3.33984 9.08203C2.89062 9.26758 2.40234 9.36523 1.875 9.375V15ZM24.375 16.875C24.1113 16.875 23.8672 16.9238 23.6426 17.0215C23.418 17.1191 23.2227 17.251 23.0566 17.417C22.8906 17.583 22.7539 17.7832 22.6465 18.0176C22.5391 18.252 22.4902 18.4961 22.5 18.75H24.375V16.875ZM1.875 18.75H3.75C3.75 18.4863 3.70117 18.2422 3.60352 18.0176C3.50586 17.793 3.37402 17.5977 3.20801 17.4316C3.04199 17.2656 2.8418 17.1289 2.60742 17.0215C2.37305 16.9141 2.12891 16.8652 1.875 16.875V18.75ZM28.125 7.5H26.25V20.625H3.75V22.5H28.125V7.5ZM6.5625 13.125C6.30859 13.125 6.08887 13.0322 5.90332 12.8467C5.71777 12.6611 5.625 12.4414 5.625 12.1875C5.625 11.9336 5.71777 11.7139 5.90332 11.5283C6.08887 11.3428 6.30859 11.25 6.5625 11.25C6.81641 11.25 7.03613 11.3428 7.22168 11.5283C7.40723 11.7139 7.5 11.9336 7.5 12.1875C7.5 12.4414 7.40723 12.6611 7.22168 12.8467C7.03613 13.0322 6.81641 13.125 6.5625 13.125ZM19.6875 13.125C19.4336 13.125 19.2139 13.0322 19.0283 12.8467C18.8428 12.6611 18.75 12.4414 18.75 12.1875C18.75 11.9336 18.8428 11.7139 19.0283 11.5283C19.2139 11.3428 19.4336 11.25 19.6875 11.25C19.9414 11.25 20.1611 11.3428 20.3467 11.5283C20.5322 11.7139 20.625 11.9336 20.625 12.1875C20.625 12.4414 20.5322 12.6611 20.3467 12.8467C20.1611 13.0322 19.9414 13.125 19.6875 13.125ZM13.125 16.875C12.6074 16.875 12.124 16.7773 11.6748 16.582C11.2256 16.3867 10.8252 16.1182 10.4736 15.7764C10.1221 15.4346 9.85352 15.0391 9.66797 14.5898C9.48242 14.1406 9.38477 13.6523 9.375 13.125V11.25C9.375 10.7324 9.47266 10.249 9.66797 9.7998C9.86328 9.35059 10.1318 8.9502 10.4736 8.59863C10.8154 8.24707 11.2109 7.97852 11.6602 7.79297C12.1094 7.60742 12.5977 7.50977 13.125 7.5C13.6426 7.5 14.126 7.59766 14.5752 7.79297C15.0244 7.98828 15.4248 8.25684 15.7764 8.59863C16.1279 8.94043 16.3965 9.33594 16.582 9.78516C16.7676 10.2344 16.8652 10.7227 16.875 11.25V13.125C16.875 13.6426 16.7773 14.126 16.582 14.5752C16.3867 15.0244 16.1182 15.4248 15.7764 15.7764C15.4346 16.1279 15.0391 16.3965 14.5898 16.582C14.1406 16.7676 13.6523 16.8652 13.125 16.875ZM11.25 13.125C11.25 13.3887 11.2988 13.6328 11.3965 13.8574C11.4941 14.082 11.626 14.2773 11.792 14.4434C11.958 14.6094 12.1582 14.7461 12.3926 14.8535C12.627 14.9609 12.8711 15.0098 13.125 15C13.3887 15 13.6328 14.9512 13.8574 14.8535C14.082 14.7559 14.2773 14.624 14.4434 14.458C14.6094 14.292 14.7461 14.0918 14.8535 13.8574C14.9609 13.623 15.0098 13.3789 15 13.125V11.25C15 10.9863 14.9512 10.7422 14.8535 10.5176C14.7559 10.293 14.624 10.0977 14.458 9.93164C14.292 9.76562 14.0918 9.62891 13.8574 9.52148C13.623 9.41406 13.3789 9.36523 13.125 9.375C12.8613 9.375 12.6172 9.42383 12.3926 9.52148C12.168 9.61914 11.9727 9.75098 11.8066 9.91699C11.6406 10.083 11.5039 10.2832 11.3965 10.5176C11.2891 10.752 11.2402 10.9961 11.25 11.25V13.125Z" fill="#5899DD"/>
</svg>
