<svg width="30" height="30" viewBox="0 0 30 30" fill="none" xmlns="http://www.w3.org/2000/svg">
<g clip-path="url(#clip0_1183_10121)">
<path d="M26.25 18.75H30V30H15V18.75H18.75V15H26.25V18.75ZM20.625 18.75H24.375V16.875H20.625V18.75ZM28.125 24.375H26.25V26.25H24.375V24.375H20.625V26.25H18.75V24.375H16.875V28.125H28.125V24.375ZM16.875 20.625V22.5H28.125V20.625H16.875ZM13.125 13.125C13.125 14.0332 12.9248 14.8828 12.5244 15.6738C12.124 16.4648 11.5527 17.1289 10.8105 17.666C11.25 17.8906 11.665 18.1494 12.0557 18.4424C12.4463 18.7354 12.8027 19.0625 13.125 19.4238V24.375C13.125 23.6035 12.9785 22.876 12.6855 22.1924C12.3926 21.5088 11.9922 20.9131 11.4844 20.4053C10.9766 19.8975 10.376 19.4922 9.68262 19.1895C8.98926 18.8867 8.26172 18.7402 7.5 18.75C6.71875 18.75 5.99121 18.8965 5.31738 19.1895C4.64355 19.4824 4.04785 19.8828 3.53027 20.3906C3.0127 20.8984 2.60742 21.499 2.31445 22.1924C2.02148 22.8857 1.875 23.6133 1.875 24.375H0C0 23.6621 0.0976563 22.9736 0.292969 22.3096C0.488281 21.6455 0.766602 21.0156 1.12793 20.4199C1.48926 19.8242 1.93359 19.2969 2.46094 18.8379C2.98828 18.3789 3.56445 17.9834 4.18945 17.6514C3.45703 17.124 2.89062 16.4648 2.49023 15.6738C2.08984 14.8828 1.88477 14.0332 1.875 13.125C1.875 12.3535 2.02148 11.626 2.31445 10.9424C2.60742 10.2588 3.00781 9.66309 3.51562 9.15527C4.02344 8.64746 4.61914 8.24219 5.30273 7.93945C5.98633 7.63672 6.71875 7.49023 7.5 7.5C8.20312 7.5 8.87207 7.62207 9.50684 7.86621C10.1416 8.11035 10.7227 8.47168 11.25 8.9502C11.5625 8.66699 11.9092 8.41797 12.29 8.20312C11.958 7.86133 11.7041 7.46582 11.5283 7.0166C11.3525 6.56738 11.2598 6.10352 11.25 5.625C11.25 5.10742 11.3477 4.62402 11.543 4.1748C11.7383 3.72559 12.0068 3.3252 12.3486 2.97363C12.6904 2.62207 13.0859 2.35352 13.5352 2.16797C13.9844 1.98242 14.4727 1.88477 15 1.875C15.5176 1.875 16.001 1.97266 16.4502 2.16797C16.8994 2.36328 17.2998 2.63184 17.6514 2.97363C18.0029 3.31543 18.2715 3.71094 18.457 4.16016C18.6426 4.60938 18.7402 5.09766 18.75 5.625C18.75 6.10352 18.6621 6.56738 18.4863 7.0166C18.3105 7.46582 18.0518 7.86133 17.71 8.20312C18.5205 8.65234 19.1797 9.25781 19.6875 10.0195C20.1953 9.25781 20.8545 8.65234 21.665 8.20312C21.333 7.86133 21.0791 7.46582 20.9033 7.0166C20.7275 6.56738 20.6348 6.10352 20.625 5.625C20.625 5.10742 20.7227 4.62402 20.918 4.1748C21.1133 3.72559 21.3818 3.3252 21.7236 2.97363C22.0654 2.62207 22.4609 2.35352 22.9102 2.16797C23.3594 1.98242 23.8477 1.88477 24.375 1.875C24.8926 1.875 25.376 1.97266 25.8252 2.16797C26.2744 2.36328 26.6748 2.63184 27.0264 2.97363C27.3779 3.31543 27.6465 3.71094 27.832 4.16016C28.0176 4.60938 28.1152 5.09766 28.125 5.625C28.125 6.10352 28.0371 6.56738 27.8613 7.0166C27.6855 7.46582 27.4268 7.86133 27.085 8.20312C27.5342 8.44727 27.9395 8.74512 28.3008 9.09668C28.6621 9.44824 28.9648 9.83398 29.209 10.2539C29.4531 10.6738 29.6484 11.1328 29.7949 11.6309C29.9414 12.1289 30.0098 12.627 30 13.125H28.125C28.125 12.6074 28.0273 12.124 27.832 11.6748C27.6367 11.2256 27.3682 10.8252 27.0264 10.4736C26.6846 10.1221 26.2891 9.85352 25.8398 9.66797C25.3906 9.48242 24.9023 9.38477 24.375 9.375C23.8574 9.375 23.374 9.47266 22.9248 9.66797C22.4756 9.86328 22.0752 10.1318 21.7236 10.4736C21.3721 10.8154 21.1035 11.2109 20.918 11.6602C20.7324 12.1094 20.6348 12.5977 20.625 13.125H18.75C18.75 12.6074 18.6523 12.124 18.457 11.6748C18.2617 11.2256 17.9932 10.8252 17.6514 10.4736C17.3096 10.1221 16.9141 9.85352 16.4648 9.66797C16.0156 9.48242 15.5273 9.38477 15 9.375C14.5215 9.375 14.0576 9.46289 13.6084 9.63867C13.1592 9.81445 12.7637 10.0732 12.4219 10.415C12.6562 10.8252 12.832 11.2598 12.9492 11.7188C13.0664 12.1777 13.125 12.6465 13.125 13.125ZM24.375 3.75C24.1113 3.75 23.8672 3.79883 23.6426 3.89648C23.418 3.99414 23.2227 4.12598 23.0566 4.29199C22.8906 4.45801 22.7539 4.6582 22.6465 4.89258C22.5391 5.12695 22.4902 5.37109 22.5 5.625C22.5 5.88867 22.5488 6.13281 22.6465 6.35742C22.7441 6.58203 22.876 6.77734 23.042 6.94336C23.208 7.10938 23.4082 7.24609 23.6426 7.35352C23.877 7.46094 24.1211 7.50977 24.375 7.5C24.6387 7.5 24.8828 7.45117 25.1074 7.35352C25.332 7.25586 25.5273 7.12402 25.6934 6.95801C25.8594 6.79199 25.9961 6.5918 26.1035 6.35742C26.2109 6.12305 26.2598 5.87891 26.25 5.625C26.25 5.36133 26.2012 5.11719 26.1035 4.89258C26.0059 4.66797 25.874 4.47266 25.708 4.30664C25.542 4.14062 25.3418 4.00391 25.1074 3.89648C24.873 3.78906 24.6289 3.74023 24.375 3.75ZM15 3.75C14.7363 3.75 14.4922 3.79883 14.2676 3.89648C14.043 3.99414 13.8477 4.12598 13.6816 4.29199C13.5156 4.45801 13.3789 4.6582 13.2715 4.89258C13.1641 5.12695 13.1152 5.37109 13.125 5.625C13.125 5.88867 13.1738 6.13281 13.2715 6.35742C13.3691 6.58203 13.501 6.77734 13.667 6.94336C13.833 7.10938 14.0332 7.24609 14.2676 7.35352C14.502 7.46094 14.7461 7.50977 15 7.5C15.2637 7.5 15.5078 7.45117 15.7324 7.35352C15.957 7.25586 16.1523 7.12402 16.3184 6.95801C16.4844 6.79199 16.6211 6.5918 16.7285 6.35742C16.8359 6.12305 16.8848 5.87891 16.875 5.625C16.875 5.36133 16.8262 5.11719 16.7285 4.89258C16.6309 4.66797 16.499 4.47266 16.333 4.30664C16.167 4.14062 15.9668 4.00391 15.7324 3.89648C15.498 3.78906 15.2539 3.74023 15 3.75ZM7.5 16.875C8.01758 16.875 8.50098 16.7773 8.9502 16.582C9.39941 16.3867 9.7998 16.1182 10.1514 15.7764C10.5029 15.4346 10.7715 15.0391 10.957 14.5898C11.1426 14.1406 11.2402 13.6523 11.25 13.125C11.25 12.6074 11.1523 12.124 10.957 11.6748C10.7617 11.2256 10.4932 10.8252 10.1514 10.4736C9.80957 10.1221 9.41406 9.85352 8.96484 9.66797C8.51562 9.48242 8.02734 9.38477 7.5 9.375C6.98242 9.375 6.49902 9.47266 6.0498 9.66797C5.60059 9.86328 5.2002 10.1318 4.84863 10.4736C4.49707 10.8154 4.22852 11.2109 4.04297 11.6602C3.85742 12.1094 3.75977 12.5977 3.75 13.125C3.75 13.6426 3.84766 14.126 4.04297 14.5752C4.23828 15.0244 4.50684 15.4248 4.84863 15.7764C5.19043 16.1279 5.58594 16.3965 6.03516 16.582C6.48438 16.7676 6.97266 16.8652 7.5 16.875Z" fill="#5899DD"/>
</g>
<defs>
<clipPath id="clip0_1183_10121">
<rect width="30" height="30" fill="white"/>
</clipPath>
</defs>
</svg>
