<svg width="16" height="16" viewBox="0 0 16 16" fill="none" xmlns="http://www.w3.org/2000/svg">
<path d="M6.10183 3.60533C6.9465 2.09066 7.3685 1.33333 7.99983 1.33333C8.63116 1.33333 9.05316 2.09066 9.89783 3.60533L10.1165 3.99733C10.3565 4.42799 10.4765 4.64333 10.6632 4.78533C10.8498 4.92733 11.0832 4.97999 11.5498 5.08533L11.9738 5.18133C13.6138 5.55266 14.4332 5.738 14.6285 6.36533C14.8232 6.992 14.2645 7.646 13.1465 8.95333L12.8572 9.29133C12.5398 9.66266 12.3805 9.84866 12.3092 10.078C12.2378 10.308 12.2618 10.556 12.3098 11.0513L12.3538 11.5027C12.5225 13.2473 12.6072 14.1193 12.0965 14.5067C11.5858 14.894 10.8178 14.5407 9.28316 13.834L8.88516 13.6513C8.44916 13.45 8.23116 13.35 7.99983 13.35C7.7685 13.35 7.5505 13.45 7.1145 13.6513L6.71716 13.834C5.18183 14.5407 4.41383 14.894 3.90383 14.5073C3.3925 14.1193 3.47716 13.2473 3.64583 11.5027L3.68983 11.052C3.73783 10.556 3.76183 10.308 3.68983 10.0787C3.61916 9.84866 3.45983 9.66266 3.1425 9.292L2.85316 8.95333C1.73516 7.64666 1.1765 6.99266 1.37116 6.36533C1.56583 5.738 2.3865 5.55199 4.0265 5.18133L4.4505 5.08533C4.9165 4.97999 5.14916 4.92733 5.3365 4.78533C5.52383 4.64333 5.64316 4.42799 5.88316 3.99733L6.10183 3.60533Z" fill="#EFBE12"/>
</svg>
