<svg width="30" height="30" viewBox="0 0 30 30" fill="none" xmlns="http://www.w3.org/2000/svg">
<path d="M21.875 6.25C22.3723 6.25 22.8492 6.44754 23.2008 6.79917C23.5525 7.15081 23.75 7.62772 23.75 8.125C23.75 8.62228 23.5525 9.09919 23.2008 9.45083C22.8492 9.80246 22.3723 10 21.875 10C21.3777 10 20.9008 9.80246 20.5492 9.45083C20.1975 9.09919 20 8.62228 20 8.125C20 7.62772 20.1975 7.15081 20.5492 6.79917C20.9008 6.44754 21.3777 6.25 21.875 6.25Z" stroke="#5899DD" stroke-width="1.5" stroke-linecap="round" stroke-linejoin="round"/>
<path d="M3.4676 13.9303C2.21385 15.3303 2.1876 17.4428 3.3376 18.9303C5.57136 21.8301 8.17037 24.4291 11.0701 26.6628C12.5576 27.8128 14.6701 27.7866 16.0701 26.5328C19.8546 23.1477 23.4107 19.5155 26.7151 15.6603C27.0487 15.2769 27.2541 14.7988 27.3026 14.2928C27.5076 12.0478 27.9314 5.58034 26.1751 3.82534C24.4189 2.07034 17.9526 2.49284 15.7076 2.69909C15.2017 2.74756 14.7235 2.95298 14.3401 3.28659C10.4849 6.59061 6.85283 10.1463 3.4676 13.9303Z" stroke="#5899DD" stroke-width="1.5" stroke-linecap="round" stroke-linejoin="round"/>
<path d="M17.235 15.4587C17.2625 14.9562 17.4025 14.0399 16.64 13.3424M16.64 13.3424C16.3491 13.0896 16.0103 12.8979 15.6438 12.7787C14.0725 12.2249 12.1438 14.0774 13.5088 15.7737C14.2425 16.6862 14.8088 16.9662 14.7538 18.0012C14.7163 18.7287 14.0013 19.4899 13.0588 19.7799C12.24 20.0324 11.3363 19.6987 10.765 19.0599C10.0663 18.2799 10.1375 17.5449 10.1313 17.2249M16.64 13.3424L17.5 12.4824M10.825 19.1574L10.0088 19.9737" stroke="#5899DD" stroke-width="1.5" stroke-linecap="round" stroke-linejoin="round"/>
</svg>
